#!OML:ASF E:\Steps\Project 1\Capture day 1\Session 2\Subject.ASF
:FULLY-SPECIFIED
:DEGREES
445
root 12.2513 17.1435 16.731 -154.281 -2.32401 176.959
lowerback -30.827 -1.83383 -6.69744
upperback -2.50242 -0.995162 -0.386197
thorax 13.3598 -1.2027 2.71886
lowerneck -4.67292 -2.04067 1.26074
upperneck -0.715553 -2.83429 -1.49263
head 0.511353 -1.45858 -0.714193
rclavicle -8.69683e-016 -1.72943e-014
rhumerus -37.6394 -29.8726 -71.0959
rradius 20.446
rwrist 8.16411
rhand -5.6455 -414.378
rfingers 7.12502
rthumb 20.1731 -83.3509
lclavicle -8.69683e-016 -1.72943e-014
lhumerus -28.5186 7.64048 81.3072
lradius 16.0168
lwrist -9.54372
lhand -21.3221 -10.8813
lfingers 7.12502
lthumb 5.06335 19.0382
rfemur -21.8984 2.74744 20.2176
rtibia 6.71351
rfoot -19.4154 4.84798
rtoes -14.7539
lfemur -22.3423 -8.49743 -23.0383
ltibia 8.00183
lfoot -6.28126 -4.17162
ltoes -14.8259
446
root 12.2451 17.1454 16.7328 -154.322 -2.40413 177.027
lowerback -30.7315 -1.84168 -6.55748
upperback -2.55768 -1.07052 -0.361116
thorax 13.2627 -1.22764 2.64371
lowerneck -4.60547 -1.89663 1.117
upperneck -0.811152 -2.63713 -1.37095
head 0.47631 -1.35894 -0.647503
rclavicle 1.14301e-015 -2.32578e-014
rhumerus -37.93 -30.5212 -70.4503
rradius 20.0904
rwrist 8.97418
rhand -5.65997 -414.053
rfingers 7.12502
rthumb 20.1592 -83.0272
lclavicle 1.14301e-015 -2.32578e-014
lhumerus -28.5885 7.96064 81.198
lradius 15.8661
lwrist -9.86621
lhand -21.6208 -11.6433
lfingers 7.12502
lthumb 4.77496 18.2829
rfemur -21.8112 2.60112 20.3249
rtibia 6.60526
rfoot -18.3493 4.93559
rtoes -15.8154
lfemur -22.3154 -8.49749 -22.9665
ltibia 8.01756
lfoot -5.56728 -4.07582
ltoes -5.18042
447
root 12.2381 17.1474 16.7348 -154.327 -2.33113 177.02
lowerback -30.7135 -1.82653 -6.5367
upperback -2.61044 -1.07354 -0.33942
thorax 13.1949 -1.22936 2.65512
lowerneck -4.5436 -1.80509 0.99683
upperneck -0.799519 -2.50723 -1.35674
head 0.472689 -1.29296 -0.620321
rclavicle 3.14328e-015 2.38542e-015
rhumerus -38.1022 -30.8367 -70.0484
rradius 19.9438
rwrist 9.22075
rhand -5.94075 -414.062
rfingers 7.12502
rthumb 19.8893 -83.0642
lclavicle 3.14328e-015 2.38542e-015
lhumerus -28.6715 8.16684 81.2021
lradius 15.7547
lwrist -10.0569
lhand -21.2531 -11.2204
lfingers 7.12502
lthumb 5.12992 18.6975
rfemur -21.8145 2.43688 20.317
rtibia 6.59706
rfoot -19.7376 5.12155
rtoes -14.1544
lfemur -22.3107 -8.54363 -23.0139
ltibia 8.03024
lfoot -6.04478 -3.99286
ltoes -9.91628
448
root 12.2312 17.1466 16.7363 -154.288 -2.181 176.963
lowerback -30.7642 -1.80475 -6.58002
upperback -2.64241 -1.03872 -0.332232
thorax 13.1767 -1.21907 2.69814
lowerneck -4.59844 -1.79791 1.02287
upperneck -0.633225 -2.4938 -1.5042
head 0.531661 -1.28681 -0.672241
rclavicle -6.43565e-015 6.36111e-015
rhumerus -38.2375 -31.1233 -69.7423
rradius 19.9143
rwrist 9.4046
rhand -6.17416 -414.488
rfingers 7.12502
rthumb 19.6649 -83.5138
lclavicle -6.43565e-015 6.36111e-015
lhumerus -28.7523 7.97421 81.4004
lradius 15.7986
lwrist -9.70516
lhand -20.8459 -10.7382
lfingers 7.12502
lthumb 5.52312 19.1699
rfemur -21.8881 2.33933 20.2277
rtibia 6.63526
rfoot -19.6562 5.26274
rtoes -14.5544
lfemur -22.3285 -8.56164 -23.1436
ltibia 8.01283
lfoot -6.02642 -3.92287
ltoes -10.3602
449
root 12.2262 17.1454 16.7395 -154.245 -2.12512 176.922
lowerback -30.7746 -1.82429 -6.59724
upperback -2.67963 -1.06837 -0.327073
thorax 13.141 -1.23534 2.70067
lowerneck -4.6298 -1.75267 1.02655
upperneck -0.572329 -2.43203 -1.54984
head 0.556127 -1.25623 -0.686925
rclavicle 1.23495e-014 4.57205e-015
rhumerus -38.3666 -31.3641 -69.4753
rradius 19.8492
rwrist 9.64756
rhand -6.12749 -414.779
rfingers 7.12502
rthumb 19.7098 -83.7993
lclavicle 1.23495e-014 4.57205e-015
lhumerus -28.8314 7.88555 81.5118
lradius 15.8027
lwrist -9.56553
lhand -20.7825 -10.9278
lfingers 7.12502
lthumb 5.58437 18.9786
rfemur -21.959 2.44019 20.1291
rtibia 6.64951
rfoot -17.9654 5.18378
rtoes -16.777
lfemur -22.3772 -8.58466 -23.2193
ltibia 8.00617
lfoot -5.63925 -3.85915
ltoes -6.0908
450
root 12.2243 17.1461 16.7437 -154.246 -2.0694 176.947
lowerback -30.7356 -1.8353 -6.59323
upperback -2.70591 -1.09496 -0.300311
thorax 13.0971 -1.24732 2.71799
lowerneck -4.69996 -1.73946 1.10164
upperneck -0.497733 -2.41678 -1.62515
head 0.589801 -1.24955 -0.724166
rclavicle -4.52235e-015 -1.19271e-015
rhumerus -38.506 -31.7286 -69.1113
rradius 19.7452
rwrist 9.96173
rhand -5.90945 -414.658
rfingers 7.12502
rthumb 19.9194 -83.657
lclavicle -4.52235e-015 -1.19271e-015
lhumerus -28.9162 7.81771 81.584
lradius 15.8133
lwrist -9.74385
lhand -20.787 -11.1505
lfingers 7.12502
lthumb 5.57999 18.7561
rfemur -22.0024 2.58595 20.113
rtibia 6.69748
rfoot -19.1231 5.09464
rtoes -15.3959
lfemur -22.3975 -8.45747 -23.2205
ltibia 7.99562
lfoot -6.40661 -3.94513
ltoes -15.4423
451
root 12.2218 17.1479 16.7474 -154.255 -2.03261 176.989
lowerback -30.7237 -1.85561 -6.59401
upperback -2.69535 -1.12527 -0.244354
thorax 13.1088 -1.26104 2.76757
lowerneck -4.90035 -1.77619 1.18234
upperneck -0.389265 -2.47058 -1.69199
head 0.655001 -1.27843 -0.763279
rclavicle -7.95139e-016 -1.63003e-014
rhumerus -38.5837 -31.7279 -68.9781
rradius 19.8611
rwrist 9.75992
rhand -5.74298 -414.388
rfingers 7.12502
rthumb 20.0794 -83.37
lclavicle -7.95139e-016 -1.63003e-014
lhumerus -28.9155 7.89137 81.6534
lradius 15.7979
lwrist -9.98921
lhand -20.7808 -11.2034
lfingers 7.12502
lthumb 5.586 18.703
rfemur -22.0179 2.69551 20.1376
rtibia 6.73148
rfoot -18.0596 4.93575
rtoes -17.3145
lfemur -22.4308 -8.33541 -23.2044
ltibia 8.05594
lfoot -5.69861 -3.94906
ltoes -6.73532
